<svg width="11" height="11" viewBox="0 0 11 11" fill="none" xmlns="http://www.w3.org/2000/svg">
<path fill-rule="evenodd" clip-rule="evenodd" d="M8.276 10.0665C7.556 10.04 5.5155 9.758 3.3785 7.6215C1.242 5.4845 0.9605 3.4445 0.9335 2.724C0.8935 1.626 1.7345 0.559501 2.706 0.143001C2.82299 0.0924844 2.9511 0.0732512 3.07776 0.0871887C3.20443 0.101126 3.32529 0.147755 3.4285 0.222501C4.2285 0.805501 4.7805 1.6875 5.2545 2.381C5.35879 2.53337 5.40338 2.71877 5.37978 2.9019C5.35617 3.08502 5.26602 3.25306 5.1265 3.374L4.151 4.0985C4.10387 4.13253 4.0707 4.18252 4.05764 4.23916C4.04458 4.29581 4.05253 4.35527 4.08 4.4065C4.301 4.808 4.694 5.406 5.144 5.856C5.5945 6.306 6.2205 6.725 6.65 6.971C6.70385 7.00123 6.76724 7.00968 6.82713 6.99462C6.88702 6.97955 6.93886 6.94211 6.972 6.89L7.607 5.9235C7.72374 5.76842 7.89596 5.66454 8.08759 5.63359C8.27921 5.60265 8.47538 5.64705 8.635 5.7575C9.3385 6.2445 10.1595 6.787 10.7605 7.5565C10.8413 7.66045 10.8927 7.7842 10.9093 7.91482C10.926 8.04544 10.9072 8.17812 10.855 8.299C10.4365 9.2755 9.3775 10.107 8.276 10.0665Z" fill="white"/>
</svg>
